<svg width="70" height="48" viewBox="0 0 70 48" fill="none" xmlns="http://www.w3.org/2000/svg">
<path d="M67.2458 15.2572C67.2565 15.4498 67.2424 15.6458 67.194 15.8405L62.8762 33.1115C62.6585 33.9816 61.8787 34.5934 60.9822 34.5981L35.0756 34.729C35.0722 34.729 35.0691 34.729 35.0657 34.729H9.15888C8.25764 34.729 7.47234 34.1151 7.25462 33.2405L2.93686 15.9041C2.88714 15.7042 2.87275 15.5027 2.88531 15.3051C1.21499 14.7789 0 13.2158 0 11.3738C0 9.10113 1.84878 7.25235 4.1215 7.25235C6.39421 7.25235 8.24299 9.10113 8.24299 11.3738C8.24299 12.6537 7.65656 13.7989 6.73832 14.5554L12.1441 20.002C13.5104 21.3787 15.4063 22.168 17.3459 22.168C19.6393 22.168 21.8259 21.0789 23.2028 19.2541L32.087 7.48263C31.3406 6.73683 30.8785 5.70633 30.8785 4.5701C30.8785 2.29739 32.7273 0.448608 35 0.448608C37.2727 0.448608 39.1215 2.29739 39.1215 4.5701C39.1215 5.67231 38.684 6.67272 37.9766 7.41302C37.979 7.41616 37.9819 7.41878 37.9842 7.42218L46.804 19.2261C48.1804 21.0684 50.3749 22.1682 52.6748 22.1682C54.6322 22.1682 56.4729 21.406 57.8569 20.0217L63.2967 14.5818C62.3591 13.8255 61.757 12.6694 61.757 11.3738C61.757 9.10113 63.6058 7.25235 65.8785 7.25235C68.1512 7.25235 70 9.10113 70 11.3738C70 13.1666 68.8473 14.6914 67.2458 15.2572ZM62.4549 40.8785C62.4549 39.7946 61.5762 38.9159 60.4923 38.9159H9.72594C8.64206 38.9159 7.76333 39.7946 7.76333 40.8785V45.5888C7.76333 46.6727 8.64206 47.5514 9.72594 47.5514H60.4923C61.5762 47.5514 62.4549 46.6727 62.4549 45.5888V40.8785Z" fill="#8B8BA6"/>
</svg>
