<svg width="25" height="20" viewBox="0 0 25 20" fill="none" xmlns="http://www.w3.org/2000/svg">
<path d="M22.7673 19.9999C23.3292 19.9999 23.8161 19.811 24.2301 19.438L17.1473 12.2261C16.9774 12.35 16.8126 12.4704 16.6571 12.585C16.127 12.9826 15.6968 13.2929 15.3665 13.5152C15.0362 13.7381 14.5967 13.9652 14.0482 14.1971C13.4993 14.4293 12.9879 14.545 12.5135 14.545H12.4996H12.4857C12.0113 14.545 11.4999 14.4293 10.951 14.1971C10.4021 13.9652 9.96266 13.7381 9.63269 13.5152C9.3024 13.2929 8.87244 12.9827 8.34212 12.585C8.19434 12.4747 8.03044 12.3537 7.85325 12.2241L0.769104 19.438C1.183 19.811 1.67024 19.9999 2.23215 19.9999H22.7673Z" fill="white"/>
<path d="M1.40917 7.68467C0.879169 7.3249 0.409174 6.91286 0 6.44873V17.421L6.24273 11.0647C4.99383 10.177 3.38469 9.05158 1.40917 7.68467Z" fill="white"/>
<path d="M23.6045 7.68467C21.7044 8.99419 20.0893 10.1215 18.7593 11.0673L24.9996 17.4213V6.44873C24.5995 6.90352 24.1345 7.31529 23.6045 7.68467Z" fill="white"/>
<path d="M22.7678 0H2.2327C1.51629 0 0.965503 0.246319 0.579659 0.73845C0.193496 1.23081 0.000732422 1.84656 0.000732422 2.58501C0.000732422 3.18149 0.25654 3.82779 0.767929 4.5241C1.27932 5.22012 1.82348 5.76683 2.40013 6.1645C2.71626 6.39192 3.6696 7.06673 5.26013 8.18871C6.11874 8.79453 6.86542 9.32257 7.50707 9.77823C8.054 10.1662 8.52567 10.5023 8.91511 10.7811C8.95981 10.8131 9.03012 10.8643 9.12344 10.9322C9.22397 11.0057 9.3512 11.099 9.50815 11.2144C9.81039 11.437 10.0615 11.6169 10.2615 11.7543C10.4612 11.8918 10.7031 12.0454 10.987 12.2159C11.2706 12.3862 11.5381 12.5143 11.7892 12.5994C12.0404 12.6846 12.2728 12.7273 12.4867 12.7273H12.5006H12.5145C12.7283 12.7273 12.9608 12.6846 13.212 12.5994C13.463 12.5143 13.7303 12.3865 14.0142 12.2159C14.2978 12.0454 14.5394 11.8915 14.7398 11.7543C14.9398 11.6169 15.1908 11.437 15.4931 11.2144C15.6498 11.099 15.777 11.0057 15.8775 10.9324C15.9709 10.8642 16.0411 10.8133 16.0861 10.7811C16.3895 10.5662 16.8623 10.2315 17.4979 9.78216C18.6545 8.96395 20.3578 7.75966 22.615 6.1645C23.2939 5.68171 23.8611 5.09909 24.3169 4.41748C24.7719 3.73588 25 3.0209 25 2.27279C25 1.64775 24.7789 1.11292 24.3375 0.667466C23.8956 0.222566 23.3723 0 22.7678 0Z" fill="white"/>
</svg>
