<svg width="19" height="25" viewBox="0 0 19 25" fill="none" xmlns="http://www.w3.org/2000/svg">
<path d="M9.20358 0C4.12897 0 0 4.12897 0 9.20409C0 10.5279 0.270949 11.7918 0.804916 12.9611C3.10607 17.9965 7.51801 23.3129 8.8157 24.8222C8.91293 24.935 9.05467 25 9.20383 25C9.353 25 9.49474 24.935 9.59196 24.8222C10.8891 23.3132 15.3011 17.997 17.603 12.9611C18.1372 11.7918 18.4079 10.5279 18.4079 9.20409C18.4074 4.12897 14.2784 0 9.20358 0ZM9.20358 13.9847C6.56751 13.9847 4.42269 11.8399 4.42269 9.20383C4.42269 6.56751 6.56751 4.42269 9.20358 4.42269C11.8396 4.42269 13.9845 6.56751 13.9845 9.20383C13.9847 11.8399 11.8399 13.9847 9.20358 13.9847Z" fill="white"/>
</svg>
