<svg width="25" height="25" viewBox="0 0 25 25" fill="none" xmlns="http://www.w3.org/2000/svg">
<path d="M24.3558 18.4464L21.2487 15.3386C20.4197 14.5096 18.9713 14.5082 18.141 15.3386L17.6229 15.8567L23.8379 22.0714L24.3558 21.5535C25.2161 20.6931 25.2132 19.3023 24.3558 18.4464Z" fill="white"/>
<path d="M16.5584 16.8636C15.9046 17.3701 14.9718 17.3499 14.3744 16.7511L8.23103 10.6035C7.63225 10.0047 7.61209 9.07133 8.11858 8.41913L1.91786 2.21875C-0.749667 5.32812 -0.64537 10.0133 2.29872 12.9574L12.0205 22.6835C14.8457 25.5086 19.4734 25.8833 22.7594 23.0642L16.5584 16.8636Z" fill="white"/>
<path d="M9.64369 3.73004L6.53661 0.622283C5.70761 -0.20672 4.25922 -0.208136 3.42885 0.622283L2.91074 1.1404L9.12577 7.35509L9.64369 6.83712C10.5039 5.97686 10.5011 4.58605 9.64369 3.73004Z" fill="white"/>
</svg>
