<svg width="52" height="52" viewBox="0 0 52 52" fill="none" xmlns="http://www.w3.org/2000/svg">
<path d="M49.9125 23.6644C50.3935 23.1769 50.7341 22.5585 50.8955 21.8793C51.057 21.2001 51.0329 20.4872 50.826 19.8216C50.6191 19.1559 50.2376 18.5641 49.7248 18.1133C49.2121 17.6624 48.5885 17.3706 47.925 17.2709L35.825 15.4441C35.5599 15.4137 35.3064 15.3141 35.0879 15.1545C34.8695 14.9949 34.693 14.7804 34.575 14.5308L29.2125 3.08766C28.9186 2.45954 28.4617 1.93018 27.8937 1.5599C27.3258 1.18961 26.6696 0.993286 26 0.993286C25.3303 0.993286 24.6741 1.18961 24.1062 1.5599C23.5382 1.93018 23.0813 2.45954 22.7875 3.08766L17.375 14.5308C17.2569 14.7804 17.0804 14.9949 16.862 15.1545C16.6435 15.3141 16.39 15.4137 16.125 15.4441L4.02495 17.2709C3.36137 17.3706 2.73784 17.6624 2.22508 18.1133C1.71232 18.5641 1.33084 19.1559 1.12392 19.8216C0.91699 20.4872 0.892895 21.2001 1.05436 21.8793C1.21583 22.5585 1.5564 23.1769 2.03745 23.6644L10.7875 32.5762C10.9681 32.7651 11.1031 32.9961 11.1813 33.2502C11.2596 33.5043 11.2788 33.7742 11.2375 34.0376L9.23745 46.668C9.14152 47.203 9.16132 47.7537 9.2954 48.2797C9.42949 48.8057 9.67448 49.2937 10.0125 49.7082C10.544 50.358 11.27 50.8016 12.073 50.9673C12.8759 51.1331 13.709 51.0112 14.4375 50.6216L25.2625 44.6717C25.4915 44.5523 25.744 44.4901 26 44.4901C26.256 44.4901 26.5084 44.5523 26.7375 44.6717L37.5625 50.5824C38.2888 50.9816 39.1244 51.1087 39.9297 50.9425C40.735 50.7763 41.4613 50.3268 41.9875 49.6691C42.3201 49.2591 42.562 48.7776 42.6959 48.2589C42.8299 47.7402 42.8526 47.197 42.7625 46.668L40.7 34.0897C40.6586 33.8264 40.6778 33.5565 40.7561 33.3024C40.8343 33.0483 40.9693 32.8173 41.15 32.6284L49.9125 23.6644Z" fill="#8B8BA6"/>
</svg>
