<svg width="45" height="50" viewBox="0 0 45 50" fill="none" xmlns="http://www.w3.org/2000/svg">
<path d="M44.1176 14.7044C44.1176 10.6504 40.8194 7.35221 36.7654 7.35221C35.2971 7.35221 33.8801 7.78864 32.6773 8.59503C29.8817 7.05548 26.7747 6.14321 23.5315 5.93118V2.94088H26.4723V0H17.6497V2.94088H20.5906V5.93118C17.3473 6.14321 14.2403 7.05557 11.4447 8.59503C10.2418 7.78864 8.82487 7.35221 7.35659 7.35221C3.30258 7.35221 0.00437868 10.6504 0.00437868 14.7044C0.00437868 16.4325 0.616181 18.0948 1.70901 19.4075C-1.61683 27.3404 -0.118256 36.9519 6.46462 43.5348C15.0844 52.1545 29.0365 52.1556 37.6574 43.5348C41.8233 39.3688 44.1176 33.83 44.1176 27.9384C44.1176 24.9607 43.5306 22.0733 42.413 19.4075C43.5058 18.0948 44.1176 16.4325 44.1176 14.7044ZM22.061 44.1133C13.1422 44.1133 5.88615 36.8572 5.88615 27.9384C5.88615 19.0196 13.1422 11.7635 22.061 11.7635C30.9798 11.7635 38.2359 19.0196 38.2359 27.9384C38.2359 36.8572 30.9798 44.1133 22.061 44.1133Z" fill="#8C8CA6"/>
<path d="M35.2134 26.4685C34.9303 23.9198 33.9208 21.5874 32.3967 19.6833L30.3795 21.7003L28.3 19.6208L30.3171 17.6038C28.4131 16.0797 26.0806 15.0701 23.5319 14.7871V17.6458H20.591V14.7871C18.0422 15.0701 15.7098 16.0797 13.8058 17.6038L15.8229 19.6209L13.7434 21.7004L11.7263 19.6833C10.2022 21.5874 9.19262 23.9198 8.90961 26.4685H11.7683V29.4094H8.90961C9.19262 31.9582 10.2022 34.2906 11.7263 36.1946L13.7433 34.1775L15.8228 36.257L13.8058 38.2741C15.7098 39.7983 18.0422 40.8078 20.591 41.0908V38.232H23.5319V41.0908C26.0806 40.8077 28.4131 39.7982 30.3171 38.2741L28.3 36.257L30.3795 34.1775L32.3966 36.1946C33.9208 34.2906 34.9303 31.9582 35.2134 29.4094H32.3546V26.4685H35.2134ZM29.4137 29.4094H20.5911V20.5867H23.532V26.4685H29.4137V29.4094Z" fill="#8C8CA6"/>
</svg>
