<svg width="30" height="50" viewBox="0 0 30 50" fill="none" xmlns="http://www.w3.org/2000/svg">
<path d="M29.0886 17.1483C28.952 16.855 28.6577 16.6667 28.3336 16.6667H18.4586L28.2044 1.2792C28.3669 1.02256 28.3769 0.697559 28.2303 0.431738C28.0836 0.165039 27.8035 0 27.5002 0H14.1669C13.8511 0 13.5627 0.17832 13.4211 0.46084L0.921124 25.4608C0.791925 25.7184 0.806085 26.025 0.957745 26.2708C1.11028 26.5166 1.37776 26.6666 1.66692 26.6666H10.2361L0.898565 48.8433C0.739385 49.2225 0.881085 49.6624 1.23187 49.8774C1.36683 49.96 1.51683 49.9999 1.66605 49.9999C1.90521 49.9999 2.14105 49.8974 2.30442 49.7041L28.9711 18.0374C29.1802 17.7892 29.2252 17.4425 29.0886 17.1483Z" fill="#8B8BA6"/>
</svg>
