<svg width="163" height="184" viewBox="0 0 163 184" fill="none" xmlns="http://www.w3.org/2000/svg">
<circle cx="122.5" cy="6.5" r="6.5" fill="#14161C"/>
<circle cx="53.5" cy="6.5" r="6.5" fill="#14161C"/>
<circle cx="19.5" cy="6.5" r="6.5" fill="#14161C"/>
<circle cx="156.5" cy="6.5" r="6.5" fill="#14161C"/>
<circle cx="88.5" cy="6.5" r="6.5" fill="#14161C"/>
<circle cx="122.5" cy="109.5" r="6.5" fill="#14161C"/>
<circle cx="53.5" cy="109.5" r="6.5" fill="#14161C"/>
<circle cx="19.5" cy="109.5" r="6.5" fill="#14161C"/>
<circle cx="156.5" cy="109.5" r="6.5" fill="#14161C"/>
<circle cx="88.5" cy="109.5" r="6.5" fill="#14161C"/>
<circle cx="122.5" cy="40.5" r="6.5" fill="#14161C"/>
<circle cx="53.5" cy="40.5" r="6.5" fill="#14161C"/>
<circle cx="19.5" cy="40.5" r="6.5" fill="#14161C"/>
<circle cx="156.5" cy="40.5" r="6.5" fill="#14161C"/>
<circle cx="88.5" cy="40.5" r="6.5" fill="#14161C"/>
<circle cx="122.5" cy="143.5" r="6.5" fill="#14161C"/>
<circle cx="53.5" cy="143.5" r="6.5" fill="#14161C"/>
<circle cx="19.5" cy="143.5" r="6.5" fill="#14161C"/>
<circle cx="156.5" cy="143.5" r="6.5" fill="#14161C"/>
<circle cx="88.5" cy="143.5" r="6.5" fill="#14161C"/>
<circle cx="122.5" cy="74.5" r="6.5" fill="#14161C"/>
<circle cx="53.5" cy="74.5" r="6.5" fill="#14161C"/>
<circle cx="19.5" cy="74.5" r="6.5" fill="#14161C"/>
<circle cx="156.5" cy="74.5" r="6.5" fill="#14161C"/>
<circle cx="88.5" cy="74.5" r="6.5" fill="#14161C"/>
<circle cx="122.5" cy="177.5" r="6.5" fill="#14161C"/>
<circle cx="53.5" cy="177.5" r="6.5" fill="#14161C"/>
<circle cx="19.5" cy="177.5" r="6.5" fill="#14161C"/>
<circle cx="156.5" cy="177.5" r="6.5" fill="#14161C"/>
<circle cx="88.5" cy="177.5" r="6.5" fill="#14161C"/>
</svg>
