<svg width="405" height="405" viewBox="0 0 405 405" fill="none" xmlns="http://www.w3.org/2000/svg">
<mask id="mask0" mask-type="alpha" maskUnits="userSpaceOnUse" x="0" y="0" width="405" height="405">
<circle cx="202.099" cy="202.099" r="142.836" transform="rotate(-45 202.099 202.099)" fill="#14161C"/>
</mask>
<g mask="url(#mask0)">
<rect x="-2.74152" y="207.989" width="296.748" height="5.65462" transform="rotate(-45 -2.74152 207.989)" fill="#14161C"/>
<rect x="125.865" y="336.596" width="296.748" height="5.65462" transform="rotate(-45 125.865 336.596)" fill="#14161C"/>
<rect x="61.562" y="272.292" width="296.748" height="5.65462" transform="rotate(-45 61.562 272.292)" fill="#14161C"/>
<rect x="190.169" y="400.899" width="296.748" height="5.65462" transform="rotate(-45 190.169 400.899)" fill="#14161C"/>
<rect x="13.3343" y="224.065" width="296.748" height="5.65462" transform="rotate(-45 13.3343 224.065)" fill="#14161C"/>
<rect x="141.941" y="352.672" width="296.748" height="5.65462" transform="rotate(-45 141.941 352.672)" fill="#14161C"/>
<rect x="77.6378" y="288.368" width="296.748" height="5.65462" transform="rotate(-45 77.6378 288.368)" fill="#14161C"/>
<rect x="29.4102" y="240.141" width="296.748" height="5.65462" transform="rotate(-45 29.4102 240.141)" fill="#14161C"/>
<rect x="158.017" y="368.748" width="296.748" height="5.65462" transform="rotate(-45 158.017 368.748)" fill="#14161C"/>
<rect x="93.7137" y="304.444" width="296.748" height="5.65462" transform="rotate(-45 93.7137 304.444)" fill="#14161C"/>
<rect x="45.4861" y="256.216" width="296.748" height="5.65462" transform="rotate(-45 45.4861 256.216)" fill="#14161C"/>
<rect x="174.093" y="384.823" width="296.748" height="5.65462" transform="rotate(-45 174.093 384.823)" fill="#14161C"/>
<rect x="109.79" y="320.52" width="296.748" height="5.65462" transform="rotate(-45 109.79 320.52)" fill="#14161C"/>
</g>
</svg>
